<mxfile host="Electron" modified="2023-10-01T14:43:51.236Z" agent="Mozilla/5.0 (Windows NT 10.0; Win64; x64) AppleWebKit/537.36 (KHTML, like Gecko) draw.io/22.0.0 Chrome/114.0.5735.289 Electron/25.8.3 Safari/537.36" etag="B3ui4A9Y1GG5pANR3Ymj" version="22.0.0" type="device">
  <diagram name="페이지-1" id="Li0wM3JvvXRPElFsxz4L">
    <mxGraphModel dx="1100" dy="976" grid="1" gridSize="10" guides="1" tooltips="1" connect="1" arrows="1" fold="1" page="1" pageScale="1" pageWidth="1654" pageHeight="2336" math="0" shadow="0">
      <root>
        <mxCell id="0" />
        <mxCell id="1" parent="0" />
        <mxCell id="TXfNH0imeDfNPN_CIn7P-1" value="UserRepository" style="shape=umlLifeline;perimeter=lifelinePerimeter;whiteSpace=wrap;html=1;container=1;dropTarget=0;collapsible=0;recursiveResize=0;outlineConnect=0;portConstraint=eastwest;newEdgeStyle={&quot;curved&quot;:0,&quot;rounded&quot;:0};fontSize=10;" vertex="1" parent="1">
          <mxGeometry x="1400" y="300" width="100" height="300" as="geometry" />
        </mxCell>
        <mxCell id="TXfNH0imeDfNPN_CIn7P-2" value="UserService" style="shape=umlLifeline;perimeter=lifelinePerimeter;whiteSpace=wrap;html=1;container=1;dropTarget=0;collapsible=0;recursiveResize=0;outlineConnect=0;portConstraint=eastwest;newEdgeStyle={&quot;curved&quot;:0,&quot;rounded&quot;:0};fontSize=10;" vertex="1" parent="1">
          <mxGeometry x="1140" y="300" width="100" height="300" as="geometry" />
        </mxCell>
        <mxCell id="TXfNH0imeDfNPN_CIn7P-3" value="UserController" style="shape=umlLifeline;perimeter=lifelinePerimeter;whiteSpace=wrap;html=1;container=1;dropTarget=0;collapsible=0;recursiveResize=0;outlineConnect=0;portConstraint=eastwest;newEdgeStyle={&quot;curved&quot;:0,&quot;rounded&quot;:0};fontSize=10;" vertex="1" parent="1">
          <mxGeometry x="860" y="300" width="100" height="300" as="geometry" />
        </mxCell>
        <mxCell id="TXfNH0imeDfNPN_CIn7P-4" value="1" style="endArrow=open;html=1;endSize=12;startArrow=diamondThin;startSize=14;startFill=0;edgeStyle=orthogonalEdgeStyle;align=left;verticalAlign=bottom;rounded=0;" edge="1" parent="1">
          <mxGeometry x="-1" y="3" relative="1" as="geometry">
            <mxPoint x="909.5" y="420" as="sourcePoint" />
            <mxPoint x="1189.5" y="420" as="targetPoint" />
            <Array as="points">
              <mxPoint x="1120" y="420" />
              <mxPoint x="1120" y="420" />
            </Array>
          </mxGeometry>
        </mxCell>
        <mxCell id="TXfNH0imeDfNPN_CIn7P-5" value="createUser(UserDto)" style="text;strokeColor=none;align=center;fillColor=none;html=1;verticalAlign=middle;whiteSpace=wrap;rounded=0;" vertex="1" parent="1">
          <mxGeometry x="1020" y="390" width="60" height="30" as="geometry" />
        </mxCell>
        <mxCell id="TXfNH0imeDfNPN_CIn7P-6" value="return" style="html=1;verticalAlign=bottom;endArrow=open;dashed=1;endSize=8;curved=0;rounded=0;" edge="1" parent="1" source="TXfNH0imeDfNPN_CIn7P-2" target="TXfNH0imeDfNPN_CIn7P-3">
          <mxGeometry relative="1" as="geometry">
            <mxPoint x="1060" y="449.5" as="sourcePoint" />
            <mxPoint x="980" y="449.5" as="targetPoint" />
          </mxGeometry>
        </mxCell>
        <mxCell id="TXfNH0imeDfNPN_CIn7P-7" value="UserDto" style="text;strokeColor=none;align=center;fillColor=none;html=1;verticalAlign=middle;whiteSpace=wrap;rounded=0;" vertex="1" parent="1">
          <mxGeometry x="1020" y="450" width="60" height="30" as="geometry" />
        </mxCell>
        <mxCell id="TXfNH0imeDfNPN_CIn7P-8" value="1" style="endArrow=open;html=1;endSize=12;startArrow=diamondThin;startSize=14;startFill=0;edgeStyle=orthogonalEdgeStyle;align=left;verticalAlign=bottom;rounded=0;" edge="1" parent="1">
          <mxGeometry x="-1" y="3" relative="1" as="geometry">
            <mxPoint x="1190" y="420" as="sourcePoint" />
            <mxPoint x="1450" y="420" as="targetPoint" />
            <Array as="points">
              <mxPoint x="1400.5" y="420" />
              <mxPoint x="1400.5" y="420" />
            </Array>
          </mxGeometry>
        </mxCell>
        <mxCell id="TXfNH0imeDfNPN_CIn7P-9" value="return" style="html=1;verticalAlign=bottom;endArrow=open;dashed=1;endSize=8;curved=0;rounded=0;" edge="1" parent="1">
          <mxGeometry relative="1" as="geometry">
            <mxPoint x="1450" y="449" as="sourcePoint" />
            <mxPoint x="1190" y="449" as="targetPoint" />
          </mxGeometry>
        </mxCell>
        <mxCell id="TXfNH0imeDfNPN_CIn7P-10" value="UserEntity" style="text;strokeColor=none;align=center;fillColor=none;html=1;verticalAlign=middle;whiteSpace=wrap;rounded=0;" vertex="1" parent="1">
          <mxGeometry x="1290" y="450" width="60" height="30" as="geometry" />
        </mxCell>
        <mxCell id="TXfNH0imeDfNPN_CIn7P-11" value="save(UserEntity)" style="text;strokeColor=none;align=center;fillColor=none;html=1;verticalAlign=middle;whiteSpace=wrap;rounded=0;" vertex="1" parent="1">
          <mxGeometry x="1290" y="390" width="60" height="30" as="geometry" />
        </mxCell>
      </root>
    </mxGraphModel>
  </diagram>
</mxfile>
